<?xml version="1.0" encoding="UTF-8"?>
<svg xmlns="http://www.w3.org/2000/svg" version="1.1" width="400" height="400">
  <g id="RING_TERMINAL-8-10-drawing-contents-start">
    <rect x="0.00" y="-13.37" width="55.46" height="26.74" fill="#898989" rx="2"/>
    <polygon points="56.89,-11.01 53.46,-13.37 53.46,13.37 56.89,11.01" fill="#898989"/>
    <circle cx="72.89" cy="0.00" r="19.43" fill="#898989"/>
    <circle cx="72.89" cy="0.00" r="9.46" fill="#ffffff" stroke="#666666" stroke-width="0.5"/>
    <rect x="5.35" y="-13.37" width="8.02" height="26.74" fill="rgba(0,0,0,0.15)" rx="1"/>
    <line x1="5.35" y1="-13.37" x2="13.37" y2="-13.37" stroke="#777777" stroke-width="0.8"/>
    <line x1="5.35" y1="13.37" x2="13.37" y2="13.37" stroke="#777777" stroke-width="0.8"/>
    <rect x="40.10" y="-13.37" width="8.02" height="26.74" fill="rgba(0,0,0,0.15)" rx="1"/>
    <line x1="40.10" y1="-13.37" x2="48.12" y2="-13.37" stroke="#777777" stroke-width="0.8"/>
    <line x1="40.10" y1="13.37" x2="48.12" y2="13.37" stroke="#777777" stroke-width="0.8"/>
    <ellipse cx="0.00" cy="0.00" rx="2" ry="13.37" fill="#6a6a6a" stroke="#777777" stroke-width="0.5"/>
    <line x1="69.89" y1="0.00" x2="75.89" y2="0.00" stroke="#bbbbbb" stroke-width="0.5"/>
    <line x1="72.89" y1="-3.00" x2="72.89" y2="3.00" stroke="#bbbbbb" stroke-width="0.5"/>
</g>
<g id="RING_TERMINAL-8-10-drawing-contents-end">
  </g>
  <g id="output csys locations">
    <g id="flagnote-1">
      <circle cx="288.00" cy="-0.00" r="4" fill="black"/>
      <line x1="288.00" y1="-0.00" x2="312.00" y2="-0.00" stroke="red" stroke-width="2"/>
      <polygon points="312.00,-0.00 306.00,-3.00 306.00,3.00" fill="red"/>
      <line x1="288.00" y1="-0.00" x2="288.00" y2="-24.00" stroke="green" stroke-width="2"/>
      <polygon points="288.00,-24.00 285.00,-18.00 291.00,-18.00" fill="green"/>
    </g>
    <g id="flagnote-1-leader_dest">
      <circle cx="96.16" cy="-0.00" r="4" fill="black"/>
      <line x1="96.16" y1="-0.00" x2="120.16" y2="-0.00" stroke="red" stroke-width="2"/>
      <polygon points="120.16,-0.00 114.16,-3.00 114.16,3.00" fill="red"/>
      <line x1="96.16" y1="-0.00" x2="96.16" y2="-24.00" stroke="green" stroke-width="2"/>
      <polygon points="96.16,-24.00 93.16,-18.00 99.16,-18.00" fill="green"/>
    </g>
    <g id="flagnote-2">
      <circle cx="278.19" cy="-74.54" r="4" fill="black"/>
      <line x1="278.19" y1="-74.54" x2="302.19" y2="-74.54" stroke="red" stroke-width="2"/>
      <polygon points="302.19,-74.54 296.19,-77.54 296.19,-71.54" fill="red"/>
      <line x1="278.19" y1="-74.54" x2="278.19" y2="-98.54" stroke="green" stroke-width="2"/>
      <polygon points="278.19,-98.54 275.19,-92.54 281.19,-92.54" fill="green"/>
    </g>
    <g id="flagnote-2-leader_dest">
      <circle cx="76.21" cy="-20.42" r="4" fill="black"/>
      <line x1="76.21" y1="-20.42" x2="100.21" y2="-20.42" stroke="red" stroke-width="2"/>
      <polygon points="100.21,-20.42 94.21,-23.42 94.21,-17.42" fill="red"/>
      <line x1="76.21" y1="-20.42" x2="76.21" y2="-44.42" stroke="green" stroke-width="2"/>
      <polygon points="76.21,-44.42 73.21,-38.42 79.21,-38.42" fill="green"/>
    </g>
    <g id="flagnote-3">
      <circle cx="278.19" cy="74.54" r="4" fill="black"/>
      <line x1="278.19" y1="74.54" x2="302.19" y2="74.54" stroke="red" stroke-width="2"/>
      <polygon points="302.19,74.54 296.19,71.54 296.19,77.54" fill="red"/>
      <line x1="278.19" y1="74.54" x2="278.19" y2="50.54" stroke="green" stroke-width="2"/>
      <polygon points="278.19,50.54 275.19,56.54 281.19,56.54" fill="green"/>
    </g>
    <g id="flagnote-3-leader_dest">
      <circle cx="76.21" cy="20.42" r="4" fill="black"/>
      <line x1="76.21" y1="20.42" x2="100.21" y2="20.42" stroke="red" stroke-width="2"/>
      <polygon points="100.21,20.42 94.21,17.42 94.21,23.42" fill="red"/>
      <line x1="76.21" y1="20.42" x2="76.21" y2="-3.58" stroke="green" stroke-width="2"/>
      <polygon points="76.21,-3.58 73.21,2.42 79.21,2.42" fill="green"/>
    </g>
    <g id="flagnote-4">
      <circle cx="249.42" cy="-144.00" r="4" fill="black"/>
      <line x1="249.42" y1="-144.00" x2="273.42" y2="-144.00" stroke="red" stroke-width="2"/>
      <polygon points="273.42,-144.00 267.42,-147.00 267.42,-141.00" fill="red"/>
      <line x1="249.42" y1="-144.00" x2="249.42" y2="-168.00" stroke="green" stroke-width="2"/>
      <polygon points="249.42,-168.00 246.42,-162.00 252.42,-162.00" fill="green"/>
    </g>
    <g id="flagnote-4-leader_dest">
      <circle cx="36.98" cy="-21.35" r="4" fill="black"/>
      <line x1="36.98" y1="-21.35" x2="60.98" y2="-21.35" stroke="red" stroke-width="2"/>
      <polygon points="60.98,-21.35 54.98,-24.35 54.98,-18.35" fill="red"/>
      <line x1="36.98" y1="-21.35" x2="36.98" y2="-45.35" stroke="green" stroke-width="2"/>
      <polygon points="36.98,-45.35 33.98,-39.35 39.98,-39.35" fill="green"/>
    </g>
    <g id="flagnote-5">
      <circle cx="249.42" cy="144.00" r="4" fill="black"/>
      <line x1="249.42" y1="144.00" x2="273.42" y2="144.00" stroke="red" stroke-width="2"/>
      <polygon points="273.42,144.00 267.42,141.00 267.42,147.00" fill="red"/>
      <line x1="249.42" y1="144.00" x2="249.42" y2="120.00" stroke="green" stroke-width="2"/>
      <polygon points="249.42,120.00 246.42,126.00 252.42,126.00" fill="green"/>
    </g>
    <g id="flagnote-5-leader_dest">
      <circle cx="36.98" cy="21.35" r="4" fill="black"/>
      <line x1="36.98" y1="21.35" x2="60.98" y2="21.35" stroke="red" stroke-width="2"/>
      <polygon points="60.98,21.35 54.98,18.35 54.98,24.35" fill="red"/>
      <line x1="36.98" y1="21.35" x2="36.98" y2="-2.65" stroke="green" stroke-width="2"/>
      <polygon points="36.98,-2.65 33.98,3.35 39.98,3.35" fill="green"/>
    </g>
    <g id="flagnote-6">
      <circle cx="203.65" cy="-203.65" r="4" fill="black"/>
      <line x1="203.65" y1="-203.65" x2="227.65" y2="-203.65" stroke="red" stroke-width="2"/>
      <polygon points="227.65,-203.65 221.65,-206.65 221.65,-200.65" fill="red"/>
      <line x1="203.65" y1="-203.65" x2="203.65" y2="-227.65" stroke="green" stroke-width="2"/>
      <polygon points="203.65,-227.65 200.65,-221.65 206.65,-221.65" fill="green"/>
    </g>
    <g id="flagnote-6-leader_dest">
      <circle cx="22.14" cy="-22.14" r="4" fill="black"/>
      <line x1="22.14" y1="-22.14" x2="46.14" y2="-22.14" stroke="red" stroke-width="2"/>
      <polygon points="46.14,-22.14 40.14,-25.14 40.14,-19.14" fill="red"/>
      <line x1="22.14" y1="-22.14" x2="22.14" y2="-46.14" stroke="green" stroke-width="2"/>
      <polygon points="22.14,-46.14 19.14,-40.14 25.14,-40.14" fill="green"/>
    </g>
    <g id="flagnote-7">
      <circle cx="203.65" cy="203.65" r="4" fill="black"/>
      <line x1="203.65" y1="203.65" x2="227.65" y2="203.65" stroke="red" stroke-width="2"/>
      <polygon points="227.65,203.65 221.65,200.65 221.65,206.65" fill="red"/>
      <line x1="203.65" y1="203.65" x2="203.65" y2="179.65" stroke="green" stroke-width="2"/>
      <polygon points="203.65,179.65 200.65,185.65 206.65,185.65" fill="green"/>
    </g>
    <g id="flagnote-7-leader_dest">
      <circle cx="22.14" cy="22.14" r="4" fill="black"/>
      <line x1="22.14" y1="22.14" x2="46.14" y2="22.14" stroke="red" stroke-width="2"/>
      <polygon points="46.14,22.14 40.14,19.14 40.14,25.14" fill="red"/>
      <line x1="22.14" y1="22.14" x2="22.14" y2="-1.86" stroke="green" stroke-width="2"/>
      <polygon points="22.14,-1.86 19.14,4.14 25.14,4.14" fill="green"/>
    </g>
    <g id="flagnote-8">
      <circle cx="144.00" cy="-249.42" r="4" fill="black"/>
      <line x1="144.00" y1="-249.42" x2="168.00" y2="-249.42" stroke="red" stroke-width="2"/>
      <polygon points="168.00,-249.42 162.00,-252.42 162.00,-246.42" fill="red"/>
      <line x1="144.00" y1="-249.42" x2="144.00" y2="-273.42" stroke="green" stroke-width="2"/>
      <polygon points="144.00,-273.42 141.00,-267.42 147.00,-267.42" fill="green"/>
    </g>
    <g id="flagnote-8-leader_dest">
      <circle cx="13.14" cy="-22.75" r="4" fill="black"/>
      <line x1="13.14" y1="-22.75" x2="37.14" y2="-22.75" stroke="red" stroke-width="2"/>
      <polygon points="37.14,-22.75 31.14,-25.75 31.14,-19.75" fill="red"/>
      <line x1="13.14" y1="-22.75" x2="13.14" y2="-46.75" stroke="green" stroke-width="2"/>
      <polygon points="13.14,-46.75 10.14,-40.75 16.14,-40.75" fill="green"/>
    </g>
    <g id="flagnote-9">
      <circle cx="144.00" cy="249.42" r="4" fill="black"/>
      <line x1="144.00" y1="249.42" x2="168.00" y2="249.42" stroke="red" stroke-width="2"/>
      <polygon points="168.00,249.42 162.00,246.42 162.00,252.42" fill="red"/>
      <line x1="144.00" y1="249.42" x2="144.00" y2="225.42" stroke="green" stroke-width="2"/>
      <polygon points="144.00,225.42 141.00,231.42 147.00,231.42" fill="green"/>
    </g>
    <g id="flagnote-9-leader_dest">
      <circle cx="13.14" cy="22.75" r="4" fill="black"/>
      <line x1="13.14" y1="22.75" x2="37.14" y2="22.75" stroke="red" stroke-width="2"/>
      <polygon points="37.14,22.75 31.14,19.75 31.14,25.75" fill="red"/>
      <line x1="13.14" y1="22.75" x2="13.14" y2="-1.25" stroke="green" stroke-width="2"/>
      <polygon points="13.14,-1.25 10.14,4.75 16.14,4.75" fill="green"/>
    </g>
    <g id="flagnote-10">
      <circle cx="74.54" cy="-278.19" r="4" fill="black"/>
      <line x1="74.54" y1="-278.19" x2="98.54" y2="-278.19" stroke="red" stroke-width="2"/>
      <polygon points="98.54,-278.19 92.54,-281.19 92.54,-275.19" fill="red"/>
      <line x1="74.54" y1="-278.19" x2="74.54" y2="-302.19" stroke="green" stroke-width="2"/>
      <polygon points="74.54,-302.19 71.54,-296.19 77.54,-296.19" fill="green"/>
    </g>
    <g id="flagnote-10-leader_dest">
      <circle cx="6.20" cy="-23.14" r="4" fill="black"/>
      <line x1="6.20" y1="-23.14" x2="30.20" y2="-23.14" stroke="red" stroke-width="2"/>
      <polygon points="30.20,-23.14 24.20,-26.14 24.20,-20.14" fill="red"/>
      <line x1="6.20" y1="-23.14" x2="6.20" y2="-47.14" stroke="green" stroke-width="2"/>
      <polygon points="6.20,-47.14 3.20,-41.14 9.20,-41.14" fill="green"/>
    </g>
    <g id="flagnote-11">
      <circle cx="74.54" cy="278.19" r="4" fill="black"/>
      <line x1="74.54" y1="278.19" x2="98.54" y2="278.19" stroke="red" stroke-width="2"/>
      <polygon points="98.54,278.19 92.54,275.19 92.54,281.19" fill="red"/>
      <line x1="74.54" y1="278.19" x2="74.54" y2="254.19" stroke="green" stroke-width="2"/>
      <polygon points="74.54,254.19 71.54,260.19 77.54,260.19" fill="green"/>
    </g>
    <g id="flagnote-11-leader_dest">
      <circle cx="6.20" cy="23.14" r="4" fill="black"/>
      <line x1="6.20" y1="23.14" x2="30.20" y2="23.14" stroke="red" stroke-width="2"/>
      <polygon points="30.20,23.14 24.20,20.14 24.20,26.14" fill="red"/>
      <line x1="6.20" y1="23.14" x2="6.20" y2="-0.86" stroke="green" stroke-width="2"/>
      <polygon points="6.20,-0.86 3.20,5.14 9.20,5.14" fill="green"/>
    </g>
    <g id="flagnote-12">
      <circle cx="0.00" cy="-288.00" r="4" fill="black"/>
      <line x1="0.00" y1="-288.00" x2="24.00" y2="-288.00" stroke="red" stroke-width="2"/>
      <polygon points="24.00,-288.00 18.00,-291.00 18.00,-285.00" fill="red"/>
      <line x1="0.00" y1="-288.00" x2="0.00" y2="-312.00" stroke="green" stroke-width="2"/>
      <polygon points="0.00,-312.00 -3.00,-306.00 3.00,-306.00" fill="green"/>
    </g>
    <g id="flagnote-12-leader_dest">
      <circle cx="0.00" cy="-23.27" r="4" fill="black"/>
      <line x1="0.00" y1="-23.27" x2="24.00" y2="-23.27" stroke="red" stroke-width="2"/>
      <polygon points="24.00,-23.27 18.00,-26.27 18.00,-20.27" fill="red"/>
      <line x1="0.00" y1="-23.27" x2="0.00" y2="-47.27" stroke="green" stroke-width="2"/>
      <polygon points="0.00,-47.27 -3.00,-41.27 3.00,-41.27" fill="green"/>
    </g>
    <g id="flagnote-13">
      <circle cx="0.00" cy="288.00" r="4" fill="black"/>
      <line x1="0.00" y1="288.00" x2="24.00" y2="288.00" stroke="red" stroke-width="2"/>
      <polygon points="24.00,288.00 18.00,285.00 18.00,291.00" fill="red"/>
      <line x1="0.00" y1="288.00" x2="0.00" y2="264.00" stroke="green" stroke-width="2"/>
      <polygon points="0.00,264.00 -3.00,270.00 3.00,270.00" fill="green"/>
    </g>
    <g id="flagnote-13-leader_dest">
      <circle cx="0.00" cy="23.27" r="4" fill="black"/>
      <line x1="0.00" y1="23.27" x2="24.00" y2="23.27" stroke="red" stroke-width="2"/>
      <polygon points="24.00,23.27 18.00,20.27 18.00,26.27" fill="red"/>
      <line x1="0.00" y1="23.27" x2="0.00" y2="-0.73" stroke="green" stroke-width="2"/>
      <polygon points="0.00,-0.73 -3.00,5.27 3.00,5.27" fill="green"/>
    </g>
  </g>
</svg>
