<?xml version="1.0" encoding="UTF-8"?>
<svg xmlns="http://www.w3.org/2000/svg" version="1.1" width="400" height="400">
  <g id="RING_TERMINAL-18-1_4-drawing-contents-start">
    <rect x="0.00" y="-9.13" width="38.55" height="18.27" fill="#898989" rx="2"/>
    <polygon points="38.17,-8.49 36.55,-9.13 36.55,9.13 38.17,8.49" fill="#898989"/>
    <circle cx="59.54" cy="0.00" r="22.99" fill="#898989"/>
    <circle cx="59.54" cy="0.00" r="12.72" fill="#ffffff" stroke="#666666" stroke-width="0.5"/>
    <rect x="3.65" y="-9.13" width="5.48" height="18.27" fill="rgba(0,0,0,0.15)" rx="1"/>
    <line x1="3.65" y1="-9.13" x2="9.14" y2="-9.13" stroke="#777777" stroke-width="0.8"/>
    <line x1="3.65" y1="9.13" x2="9.14" y2="9.13" stroke="#777777" stroke-width="0.8"/>
    <rect x="27.41" y="-9.13" width="5.48" height="18.27" fill="rgba(0,0,0,0.15)" rx="1"/>
    <line x1="27.41" y1="-9.13" x2="32.89" y2="-9.13" stroke="#777777" stroke-width="0.8"/>
    <line x1="27.41" y1="9.13" x2="32.89" y2="9.13" stroke="#777777" stroke-width="0.8"/>
    <ellipse cx="0.00" cy="0.00" rx="2" ry="9.13" fill="#6a6a6a" stroke="#777777" stroke-width="0.5"/>
    <line x1="56.54" y1="0.00" x2="62.54" y2="0.00" stroke="#bbbbbb" stroke-width="0.5"/>
    <line x1="59.54" y1="-3.00" x2="59.54" y2="3.00" stroke="#bbbbbb" stroke-width="0.5"/>
</g>
<g id="RING_TERMINAL-18-1_4-drawing-contents-end">
  </g>
  <g id="output csys locations">
    <g id="flagnote-1">
      <circle cx="288.00" cy="-0.00" r="4" fill="black"/>
      <line x1="288.00" y1="-0.00" x2="312.00" y2="-0.00" stroke="red" stroke-width="2"/>
      <polygon points="312.00,-0.00 306.00,-3.00 306.00,3.00" fill="red"/>
      <line x1="288.00" y1="-0.00" x2="288.00" y2="-24.00" stroke="green" stroke-width="2"/>
      <polygon points="288.00,-24.00 285.00,-18.00 291.00,-18.00" fill="green"/>
    </g>
    <g id="flagnote-1-leader_dest">
      <circle cx="86.37" cy="-0.00" r="4" fill="black"/>
      <line x1="86.37" y1="-0.00" x2="110.37" y2="-0.00" stroke="red" stroke-width="2"/>
      <polygon points="110.37,-0.00 104.37,-3.00 104.37,3.00" fill="red"/>
      <line x1="86.37" y1="-0.00" x2="86.37" y2="-24.00" stroke="green" stroke-width="2"/>
      <polygon points="86.37,-24.00 83.37,-18.00 89.37,-18.00" fill="green"/>
    </g>
    <g id="flagnote-2">
      <circle cx="278.19" cy="-74.54" r="4" fill="black"/>
      <line x1="278.19" y1="-74.54" x2="302.19" y2="-74.54" stroke="red" stroke-width="2"/>
      <polygon points="302.19,-74.54 296.19,-77.54 296.19,-71.54" fill="red"/>
      <line x1="278.19" y1="-74.54" x2="278.19" y2="-98.54" stroke="green" stroke-width="2"/>
      <polygon points="278.19,-98.54 275.19,-92.54 281.19,-92.54" fill="green"/>
    </g>
    <g id="flagnote-2-leader_dest">
      <circle cx="75.74" cy="-20.29" r="4" fill="black"/>
      <line x1="75.74" y1="-20.29" x2="99.74" y2="-20.29" stroke="red" stroke-width="2"/>
      <polygon points="99.74,-20.29 93.74,-23.29 93.74,-17.29" fill="red"/>
      <line x1="75.74" y1="-20.29" x2="75.74" y2="-44.29" stroke="green" stroke-width="2"/>
      <polygon points="75.74,-44.29 72.74,-38.29 78.74,-38.29" fill="green"/>
    </g>
    <g id="flagnote-3">
      <circle cx="278.19" cy="74.54" r="4" fill="black"/>
      <line x1="278.19" y1="74.54" x2="302.19" y2="74.54" stroke="red" stroke-width="2"/>
      <polygon points="302.19,74.54 296.19,71.54 296.19,77.54" fill="red"/>
      <line x1="278.19" y1="74.54" x2="278.19" y2="50.54" stroke="green" stroke-width="2"/>
      <polygon points="278.19,50.54 275.19,56.54 281.19,56.54" fill="green"/>
    </g>
    <g id="flagnote-3-leader_dest">
      <circle cx="75.74" cy="20.29" r="4" fill="black"/>
      <line x1="75.74" y1="20.29" x2="99.74" y2="20.29" stroke="red" stroke-width="2"/>
      <polygon points="99.74,20.29 93.74,17.29 93.74,23.29" fill="red"/>
      <line x1="75.74" y1="20.29" x2="75.74" y2="-3.71" stroke="green" stroke-width="2"/>
      <polygon points="75.74,-3.71 72.74,2.29 78.74,2.29" fill="green"/>
    </g>
    <g id="flagnote-4">
      <circle cx="249.42" cy="-144.00" r="4" fill="black"/>
      <line x1="249.42" y1="-144.00" x2="273.42" y2="-144.00" stroke="red" stroke-width="2"/>
      <polygon points="273.42,-144.00 267.42,-147.00 267.42,-141.00" fill="red"/>
      <line x1="249.42" y1="-144.00" x2="249.42" y2="-168.00" stroke="green" stroke-width="2"/>
      <polygon points="249.42,-168.00 246.42,-162.00 252.42,-162.00" fill="green"/>
    </g>
    <g id="flagnote-4-leader_dest">
      <circle cx="43.15" cy="-24.91" r="4" fill="black"/>
      <line x1="43.15" y1="-24.91" x2="67.15" y2="-24.91" stroke="red" stroke-width="2"/>
      <polygon points="67.15,-24.91 61.15,-27.91 61.15,-21.91" fill="red"/>
      <line x1="43.15" y1="-24.91" x2="43.15" y2="-48.91" stroke="green" stroke-width="2"/>
      <polygon points="43.15,-48.91 40.15,-42.91 46.15,-42.91" fill="green"/>
    </g>
    <g id="flagnote-5">
      <circle cx="249.42" cy="144.00" r="4" fill="black"/>
      <line x1="249.42" y1="144.00" x2="273.42" y2="144.00" stroke="red" stroke-width="2"/>
      <polygon points="273.42,144.00 267.42,141.00 267.42,147.00" fill="red"/>
      <line x1="249.42" y1="144.00" x2="249.42" y2="120.00" stroke="green" stroke-width="2"/>
      <polygon points="249.42,120.00 246.42,126.00 252.42,126.00" fill="green"/>
    </g>
    <g id="flagnote-5-leader_dest">
      <circle cx="43.15" cy="24.91" r="4" fill="black"/>
      <line x1="43.15" y1="24.91" x2="67.15" y2="24.91" stroke="red" stroke-width="2"/>
      <polygon points="67.15,24.91 61.15,21.91 61.15,27.91" fill="red"/>
      <line x1="43.15" y1="24.91" x2="43.15" y2="0.91" stroke="green" stroke-width="2"/>
      <polygon points="43.15,0.91 40.15,6.91 46.15,6.91" fill="green"/>
    </g>
    <g id="flagnote-6">
      <circle cx="203.65" cy="-203.65" r="4" fill="black"/>
      <line x1="203.65" y1="-203.65" x2="227.65" y2="-203.65" stroke="red" stroke-width="2"/>
      <polygon points="227.65,-203.65 221.65,-206.65 221.65,-200.65" fill="red"/>
      <line x1="203.65" y1="-203.65" x2="203.65" y2="-227.65" stroke="green" stroke-width="2"/>
      <polygon points="203.65,-227.65 200.65,-221.65 206.65,-221.65" fill="green"/>
    </g>
    <g id="flagnote-6-leader_dest">
      <circle cx="25.71" cy="-25.71" r="4" fill="black"/>
      <line x1="25.71" y1="-25.71" x2="49.71" y2="-25.71" stroke="red" stroke-width="2"/>
      <polygon points="49.71,-25.71 43.71,-28.71 43.71,-22.71" fill="red"/>
      <line x1="25.71" y1="-25.71" x2="25.71" y2="-49.71" stroke="green" stroke-width="2"/>
      <polygon points="25.71,-49.71 22.71,-43.71 28.71,-43.71" fill="green"/>
    </g>
    <g id="flagnote-7">
      <circle cx="203.65" cy="203.65" r="4" fill="black"/>
      <line x1="203.65" y1="203.65" x2="227.65" y2="203.65" stroke="red" stroke-width="2"/>
      <polygon points="227.65,203.65 221.65,200.65 221.65,206.65" fill="red"/>
      <line x1="203.65" y1="203.65" x2="203.65" y2="179.65" stroke="green" stroke-width="2"/>
      <polygon points="203.65,179.65 200.65,185.65 206.65,185.65" fill="green"/>
    </g>
    <g id="flagnote-7-leader_dest">
      <circle cx="25.71" cy="25.71" r="4" fill="black"/>
      <line x1="25.71" y1="25.71" x2="49.71" y2="25.71" stroke="red" stroke-width="2"/>
      <polygon points="49.71,25.71 43.71,22.71 43.71,28.71" fill="red"/>
      <line x1="25.71" y1="25.71" x2="25.71" y2="1.71" stroke="green" stroke-width="2"/>
      <polygon points="25.71,1.71 22.71,7.71 28.71,7.71" fill="green"/>
    </g>
    <g id="flagnote-8">
      <circle cx="144.00" cy="-249.42" r="4" fill="black"/>
      <line x1="144.00" y1="-249.42" x2="168.00" y2="-249.42" stroke="red" stroke-width="2"/>
      <polygon points="168.00,-249.42 162.00,-252.42 162.00,-246.42" fill="red"/>
      <line x1="144.00" y1="-249.42" x2="144.00" y2="-273.42" stroke="green" stroke-width="2"/>
      <polygon points="144.00,-273.42 141.00,-267.42 147.00,-267.42" fill="green"/>
    </g>
    <g id="flagnote-8-leader_dest">
      <circle cx="15.20" cy="-26.32" r="4" fill="black"/>
      <line x1="15.20" y1="-26.32" x2="39.20" y2="-26.32" stroke="red" stroke-width="2"/>
      <polygon points="39.20,-26.32 33.20,-29.32 33.20,-23.32" fill="red"/>
      <line x1="15.20" y1="-26.32" x2="15.20" y2="-50.32" stroke="green" stroke-width="2"/>
      <polygon points="15.20,-50.32 12.20,-44.32 18.20,-44.32" fill="green"/>
    </g>
    <g id="flagnote-9">
      <circle cx="144.00" cy="249.42" r="4" fill="black"/>
      <line x1="144.00" y1="249.42" x2="168.00" y2="249.42" stroke="red" stroke-width="2"/>
      <polygon points="168.00,249.42 162.00,246.42 162.00,252.42" fill="red"/>
      <line x1="144.00" y1="249.42" x2="144.00" y2="225.42" stroke="green" stroke-width="2"/>
      <polygon points="144.00,225.42 141.00,231.42 147.00,231.42" fill="green"/>
    </g>
    <g id="flagnote-9-leader_dest">
      <circle cx="15.20" cy="26.32" r="4" fill="black"/>
      <line x1="15.20" y1="26.32" x2="39.20" y2="26.32" stroke="red" stroke-width="2"/>
      <polygon points="39.20,26.32 33.20,23.32 33.20,29.32" fill="red"/>
      <line x1="15.20" y1="26.32" x2="15.20" y2="2.32" stroke="green" stroke-width="2"/>
      <polygon points="15.20,2.32 12.20,8.32 18.20,8.32" fill="green"/>
    </g>
    <g id="flagnote-10">
      <circle cx="74.54" cy="-278.19" r="4" fill="black"/>
      <line x1="74.54" y1="-278.19" x2="98.54" y2="-278.19" stroke="red" stroke-width="2"/>
      <polygon points="98.54,-278.19 92.54,-281.19 92.54,-275.19" fill="red"/>
      <line x1="74.54" y1="-278.19" x2="74.54" y2="-302.19" stroke="green" stroke-width="2"/>
      <polygon points="74.54,-302.19 71.54,-296.19 77.54,-296.19" fill="green"/>
    </g>
    <g id="flagnote-10-leader_dest">
      <circle cx="7.16" cy="-26.71" r="4" fill="black"/>
      <line x1="7.16" y1="-26.71" x2="31.16" y2="-26.71" stroke="red" stroke-width="2"/>
      <polygon points="31.16,-26.71 25.16,-29.71 25.16,-23.71" fill="red"/>
      <line x1="7.16" y1="-26.71" x2="7.16" y2="-50.71" stroke="green" stroke-width="2"/>
      <polygon points="7.16,-50.71 4.16,-44.71 10.16,-44.71" fill="green"/>
    </g>
    <g id="flagnote-11">
      <circle cx="74.54" cy="278.19" r="4" fill="black"/>
      <line x1="74.54" y1="278.19" x2="98.54" y2="278.19" stroke="red" stroke-width="2"/>
      <polygon points="98.54,278.19 92.54,275.19 92.54,281.19" fill="red"/>
      <line x1="74.54" y1="278.19" x2="74.54" y2="254.19" stroke="green" stroke-width="2"/>
      <polygon points="74.54,254.19 71.54,260.19 77.54,260.19" fill="green"/>
    </g>
    <g id="flagnote-11-leader_dest">
      <circle cx="7.16" cy="26.71" r="4" fill="black"/>
      <line x1="7.16" y1="26.71" x2="31.16" y2="26.71" stroke="red" stroke-width="2"/>
      <polygon points="31.16,26.71 25.16,23.71 25.16,29.71" fill="red"/>
      <line x1="7.16" y1="26.71" x2="7.16" y2="2.71" stroke="green" stroke-width="2"/>
      <polygon points="7.16,2.71 4.16,8.71 10.16,8.71" fill="green"/>
    </g>
    <g id="flagnote-12">
      <circle cx="0.00" cy="-288.00" r="4" fill="black"/>
      <line x1="0.00" y1="-288.00" x2="24.00" y2="-288.00" stroke="red" stroke-width="2"/>
      <polygon points="24.00,-288.00 18.00,-291.00 18.00,-285.00" fill="red"/>
      <line x1="0.00" y1="-288.00" x2="0.00" y2="-312.00" stroke="green" stroke-width="2"/>
      <polygon points="0.00,-312.00 -3.00,-306.00 3.00,-306.00" fill="green"/>
    </g>
    <g id="flagnote-12-leader_dest">
      <circle cx="0.00" cy="-26.83" r="4" fill="black"/>
      <line x1="0.00" y1="-26.83" x2="24.00" y2="-26.83" stroke="red" stroke-width="2"/>
      <polygon points="24.00,-26.83 18.00,-29.83 18.00,-23.83" fill="red"/>
      <line x1="0.00" y1="-26.83" x2="0.00" y2="-50.83" stroke="green" stroke-width="2"/>
      <polygon points="0.00,-50.83 -3.00,-44.83 3.00,-44.83" fill="green"/>
    </g>
    <g id="flagnote-13">
      <circle cx="0.00" cy="288.00" r="4" fill="black"/>
      <line x1="0.00" y1="288.00" x2="24.00" y2="288.00" stroke="red" stroke-width="2"/>
      <polygon points="24.00,288.00 18.00,285.00 18.00,291.00" fill="red"/>
      <line x1="0.00" y1="288.00" x2="0.00" y2="264.00" stroke="green" stroke-width="2"/>
      <polygon points="0.00,264.00 -3.00,270.00 3.00,270.00" fill="green"/>
    </g>
    <g id="flagnote-13-leader_dest">
      <circle cx="0.00" cy="26.83" r="4" fill="black"/>
      <line x1="0.00" y1="26.83" x2="24.00" y2="26.83" stroke="red" stroke-width="2"/>
      <polygon points="24.00,26.83 18.00,23.83 18.00,29.83" fill="red"/>
      <line x1="0.00" y1="26.83" x2="0.00" y2="2.83" stroke="green" stroke-width="2"/>
      <polygon points="0.00,2.83 -3.00,8.83 3.00,8.83" fill="green"/>
    </g>
  </g>
</svg>
