<?xml version="1.0" ?>
<svg xmlns="http://www.w3.org/2000/svg" version="1.1" width="1056" height="816.0">
  <g id="contents">
    <g id="border">
      <line x1="40" y1="20" x2="40" y2="796.0" stroke="black" stroke-width="0.5"/>
      <text x="88.0" y="30.0" style="font-size:8px;font-family:Arial" text-anchor="middle">1</text>
      <text x="88.0" y="786.0" style="font-size:8px;font-family:Arial" text-anchor="middle">1</text>
      <line x1="136" y1="20" x2="136" y2="796.0" stroke="black" stroke-width="0.5"/>
      <text x="184.0" y="30.0" style="font-size:8px;font-family:Arial" text-anchor="middle">2</text>
      <text x="184.0" y="786.0" style="font-size:8px;font-family:Arial" text-anchor="middle">2</text>
      <line x1="232" y1="20" x2="232" y2="796.0" stroke="black" stroke-width="0.5"/>
      <text x="280.0" y="30.0" style="font-size:8px;font-family:Arial" text-anchor="middle">3</text>
      <text x="280.0" y="786.0" style="font-size:8px;font-family:Arial" text-anchor="middle">3</text>
      <line x1="328" y1="20" x2="328" y2="796.0" stroke="black" stroke-width="0.5"/>
      <text x="376.0" y="30.0" style="font-size:8px;font-family:Arial" text-anchor="middle">4</text>
      <text x="376.0" y="786.0" style="font-size:8px;font-family:Arial" text-anchor="middle">4</text>
      <line x1="424" y1="20" x2="424" y2="796.0" stroke="black" stroke-width="0.5"/>
      <text x="472.0" y="30.0" style="font-size:8px;font-family:Arial" text-anchor="middle">5</text>
      <text x="472.0" y="786.0" style="font-size:8px;font-family:Arial" text-anchor="middle">5</text>
      <line x1="520" y1="20" x2="520" y2="796.0" stroke="black" stroke-width="0.5"/>
      <text x="568.0" y="30.0" style="font-size:8px;font-family:Arial" text-anchor="middle">6</text>
      <text x="568.0" y="786.0" style="font-size:8px;font-family:Arial" text-anchor="middle">6</text>
      <line x1="616" y1="20" x2="616" y2="796.0" stroke="black" stroke-width="0.5"/>
      <text x="664.0" y="30.0" style="font-size:8px;font-family:Arial" text-anchor="middle">7</text>
      <text x="664.0" y="786.0" style="font-size:8px;font-family:Arial" text-anchor="middle">7</text>
      <line x1="712" y1="20" x2="712" y2="796.0" stroke="black" stroke-width="0.5"/>
      <text x="760.0" y="30.0" style="font-size:8px;font-family:Arial" text-anchor="middle">8</text>
      <text x="760.0" y="786.0" style="font-size:8px;font-family:Arial" text-anchor="middle">8</text>
      <line x1="808" y1="20" x2="808" y2="796.0" stroke="black" stroke-width="0.5"/>
      <text x="856.0" y="30.0" style="font-size:8px;font-family:Arial" text-anchor="middle">9</text>
      <text x="856.0" y="786.0" style="font-size:8px;font-family:Arial" text-anchor="middle">9</text>
      <line x1="904" y1="20" x2="904" y2="796.0" stroke="black" stroke-width="0.5"/>
      <text x="952.0" y="30.0" style="font-size:8px;font-family:Arial" text-anchor="middle">10</text>
      <text x="952.0" y="786.0" style="font-size:8px;font-family:Arial" text-anchor="middle">10</text>
      <line x1="1000" y1="20" x2="1000" y2="796.0" stroke="black" stroke-width="0.5"/>
      <line x1="20" y1="40" x2="1036" y2="40" stroke="black" stroke-width="0.5"/>
      <text x="30.0" y="92.0" style="font-size:8px;font-family:Arial" text-anchor="middle">A</text>
      <text x="1026.0" y="92.0" style="font-size:8px;font-family:Arial" text-anchor="middle">A</text>
      <line x1="20" y1="136" x2="1036" y2="136" stroke="black" stroke-width="0.5"/>
      <text x="30.0" y="188.0" style="font-size:8px;font-family:Arial" text-anchor="middle">B</text>
      <text x="1026.0" y="188.0" style="font-size:8px;font-family:Arial" text-anchor="middle">B</text>
      <line x1="20" y1="232" x2="1036" y2="232" stroke="black" stroke-width="0.5"/>
      <text x="30.0" y="284.0" style="font-size:8px;font-family:Arial" text-anchor="middle">C</text>
      <text x="1026.0" y="284.0" style="font-size:8px;font-family:Arial" text-anchor="middle">C</text>
      <line x1="20" y1="328" x2="1036" y2="328" stroke="black" stroke-width="0.5"/>
      <text x="30.0" y="380.0" style="font-size:8px;font-family:Arial" text-anchor="middle">D</text>
      <text x="1026.0" y="380.0" style="font-size:8px;font-family:Arial" text-anchor="middle">D</text>
      <line x1="20" y1="424" x2="1036" y2="424" stroke="black" stroke-width="0.5"/>
      <text x="30.0" y="476.0" style="font-size:8px;font-family:Arial" text-anchor="middle">E</text>
      <text x="1026.0" y="476.0" style="font-size:8px;font-family:Arial" text-anchor="middle">E</text>
      <line x1="20" y1="520" x2="1036" y2="520" stroke="black" stroke-width="0.5"/>
      <text x="30.0" y="572.0" style="font-size:8px;font-family:Arial" text-anchor="middle">F</text>
      <text x="1026.0" y="572.0" style="font-size:8px;font-family:Arial" text-anchor="middle">F</text>
      <line x1="20" y1="616" x2="1036" y2="616" stroke="black" stroke-width="0.5"/>
      <text x="30.0" y="668.0" style="font-size:8px;font-family:Arial" text-anchor="middle">G</text>
      <text x="1026.0" y="668.0" style="font-size:8px;font-family:Arial" text-anchor="middle">G</text>
      <line x1="20" y1="712" x2="1036" y2="712" stroke="black" stroke-width="0.5"/>
      <rect x="20" y="20" width="1016" height="776.0" fill="none" stroke="black" stroke-width="1"/>
      <rect x="40" y="40" width="976" height="736.0" fill="white" stroke="black" stroke-width="1"/>
    </g>
    <g id="logo">
      <rect x="498.0" y="728.0" width="120.0" height="48" fill="none" stroke="black" stroke-width="1"/>
    </g>
    <g id="description">
      <rect x="618" y="728.0" width="264" height="24" fill="none" stroke="black" stroke-width="1"/>
      <text x="620" y="735.0" style="font-size:7px;font-family:Arial;font-weight:bold" text-anchor="start">DESCRIPTION</text>
      <text x="750.0" y="744.0" style="font-size:7px;font-family:Arial" text-anchor="middle" id="tblock-key-desc">tblock-key-desc</text>
    </g>
    <g id="rev">
      <rect x="882" y="728.0" width="50" height="24" fill="none" stroke="black" stroke-width="1"/>
      <text x="884" y="735.0" style="font-size:7px;font-family:Arial;font-weight:bold" text-anchor="start">REV</text>
      <text x="907.0" y="744.0" style="font-size:7px;font-family:Arial" text-anchor="middle" id="tblock-key-rev">tblock-key-rev</text>
    </g>
    <g id="release-ticket">
      <rect x="932" y="728.0" width="84" height="24" fill="none" stroke="black" stroke-width="1"/>
      <text x="934" y="735.0" style="font-size:7px;font-family:Arial;font-weight:bold" text-anchor="start">RELEASE TICKET</text>
      <text x="974.0" y="744.0" style="font-size:7px;font-family:Arial" text-anchor="middle" id="tblock-key-releaseticket">tblock-key-releaseticket</text>
    </g>
    <g id="scale">
      <rect x="618" y="752.0" width="73" height="24" fill="none" stroke="black" stroke-width="1"/>
      <text x="620" y="759.0" style="font-size:7px;font-family:Arial;font-weight:bold" text-anchor="start">SCALE</text>
      <text x="654.5" y="768.0" style="font-size:7px;font-family:Arial" text-anchor="middle" id="tblock-key-scale">tblock-key-scale</text>
    </g>
    <g id="part-number">
      <rect x="691" y="752.0" width="126" height="24" fill="none" stroke="black" stroke-width="1"/>
      <text x="693" y="759.0" style="font-size:7px;font-family:Arial;font-weight:bold" text-anchor="start">PART NUMBER</text>
      <text x="754.0" y="768.0" style="font-size:7px;font-family:Arial" text-anchor="middle" id="tblock-key-pn">tblock-key-pn</text>
    </g>
    <g id="drawn-by">
      <rect x="817" y="752.0" width="139" height="24" fill="none" stroke="black" stroke-width="1"/>
      <text x="819" y="759.0" style="font-size:7px;font-family:Arial;font-weight:bold" text-anchor="start">DRAWN BY</text>
      <text x="886.5" y="768.0" style="font-size:7px;font-family:Arial" text-anchor="middle" id="tblock-key-drawnby">tblock-key-drawnby</text>
    </g>
    <g id="sheet">
      <rect x="956" y="752.0" width="60" height="24" fill="none" stroke="black" stroke-width="1"/>
      <text x="958" y="759.0" style="font-size:7px;font-family:Arial;font-weight:bold" text-anchor="start">SHEET</text>
      <text x="986.0" y="768.0" style="font-size:7px;font-family:Arial" text-anchor="middle" id="tblock-key-sheet">tblock-key-sheet</text>
    </g>
  </g>
</svg>
