<?xml version="1.0" encoding="UTF-8"?>
<svg xmlns="http://www.w3.org/2000/svg" version="1.1" width="400" height="400">
  <g id="M85049-90_9Z03-drawing-contents-start">
    <rect
       x="0"
       y="-48"
       width="209.95547"
       height="96"
       fill="#b9b745"
       stroke="#000000"
       stroke-width="1"
       id="rect1" />
    <rect
       x="145.34639"
       y="-141.46625"
       width="96"
       height="189.46625"
       fill="#b9b745"
       stroke="#000000"
       stroke-width="1"
       id="rect1-7" />
  </g>
  <g id="M85049-90_9Z03-drawing-contents-end">
  </g>
  <g id="output csys locations">
    <g id="connector">
      <circle cx="192.00" cy="-144.00" r="4" fill="black"/>
      <line x1="192.00" y1="-144.00" x2="192.00" y2="-168.00" stroke="red" stroke-width="2"/>
      <polygon points="192.00,-168.00 189.00,-162.00 195.00,-162.00" fill="red"/>
      <line x1="192.00" y1="-144.00" x2="168.00" y2="-144.00" stroke="green" stroke-width="2"/>
      <polygon points="168.00,-144.00 174.00,-141.00 174.00,-147.00" fill="green"/>
    </g>
    <g id="flagnote-1">
      <circle cx="384.00" cy="-0.00" r="4" fill="black"/>
      <line x1="384.00" y1="-0.00" x2="408.00" y2="-0.00" stroke="red" stroke-width="2"/>
      <polygon points="408.00,-0.00 402.00,-3.00 402.00,3.00" fill="red"/>
      <line x1="384.00" y1="-0.00" x2="384.00" y2="-24.00" stroke="green" stroke-width="2"/>
      <polygon points="384.00,-24.00 381.00,-18.00 387.00,-18.00" fill="green"/>
    </g>
    <g id="flagnote-1-leader_dest">
      <circle cx="242.88" cy="-0.00" r="4" fill="black"/>
      <line x1="242.88" y1="-0.00" x2="266.88" y2="-0.00" stroke="red" stroke-width="2"/>
      <polygon points="266.88,-0.00 260.88,-3.00 260.88,3.00" fill="red"/>
      <line x1="242.88" y1="-0.00" x2="242.88" y2="-24.00" stroke="green" stroke-width="2"/>
      <polygon points="242.88,-24.00 239.88,-18.00 245.88,-18.00" fill="green"/>
    </g>
    <g id="flagnote-2">
      <circle cx="378.17" cy="-66.68" r="4" fill="black"/>
      <line x1="378.17" y1="-66.68" x2="402.17" y2="-66.68" stroke="red" stroke-width="2"/>
      <polygon points="402.17,-66.68 396.17,-69.68 396.17,-63.68" fill="red"/>
      <line x1="378.17" y1="-66.68" x2="378.17" y2="-90.68" stroke="green" stroke-width="2"/>
      <polygon points="378.17,-90.68 375.17,-84.68 381.17,-84.68" fill="green"/>
    </g>
    <g id="flagnote-2-leader_dest">
      <circle cx="241.08" cy="-42.51" r="4" fill="black"/>
      <line x1="241.08" y1="-42.51" x2="265.08" y2="-42.51" stroke="red" stroke-width="2"/>
      <polygon points="265.08,-42.51 259.08,-45.51 259.08,-39.51" fill="red"/>
      <line x1="241.08" y1="-42.51" x2="241.08" y2="-66.51" stroke="green" stroke-width="2"/>
      <polygon points="241.08,-66.51 238.08,-60.51 244.08,-60.51" fill="green"/>
    </g>
    <g id="flagnote-3">
      <circle cx="378.17" cy="66.68" r="4" fill="black"/>
      <line x1="378.17" y1="66.68" x2="402.17" y2="66.68" stroke="red" stroke-width="2"/>
      <polygon points="402.17,66.68 396.17,63.68 396.17,69.68" fill="red"/>
      <line x1="378.17" y1="66.68" x2="378.17" y2="42.68" stroke="green" stroke-width="2"/>
      <polygon points="378.17,42.68 375.17,48.68 381.17,48.68" fill="green"/>
    </g>
    <g id="flagnote-3-leader_dest">
      <circle cx="241.08" cy="42.51" r="4" fill="black"/>
      <line x1="241.08" y1="42.51" x2="265.08" y2="42.51" stroke="red" stroke-width="2"/>
      <polygon points="265.08,42.51 259.08,39.51 259.08,45.51" fill="red"/>
      <line x1="241.08" y1="42.51" x2="241.08" y2="18.51" stroke="green" stroke-width="2"/>
      <polygon points="241.08,18.51 238.08,24.51 244.08,24.51" fill="green"/>
    </g>
    <g id="flagnote-4">
      <circle cx="360.84" cy="-131.34" r="4" fill="black"/>
      <line x1="360.84" y1="-131.34" x2="384.84" y2="-131.34" stroke="red" stroke-width="2"/>
      <polygon points="384.84,-131.34 378.84,-134.34 378.84,-128.34" fill="red"/>
      <line x1="360.84" y1="-131.34" x2="360.84" y2="-155.34" stroke="green" stroke-width="2"/>
      <polygon points="360.84,-155.34 357.84,-149.34 363.84,-149.34" fill="green"/>
    </g>
    <g id="flagnote-4-leader_dest">
      <circle cx="243.57" cy="-88.65" r="4" fill="black"/>
      <line x1="243.57" y1="-88.65" x2="267.57" y2="-88.65" stroke="red" stroke-width="2"/>
      <polygon points="267.57,-88.65 261.57,-91.65 261.57,-85.65" fill="red"/>
      <line x1="243.57" y1="-88.65" x2="243.57" y2="-112.65" stroke="green" stroke-width="2"/>
      <polygon points="243.57,-112.65 240.57,-106.65 246.57,-106.65" fill="green"/>
    </g>
    <g id="flagnote-5">
      <circle cx="360.84" cy="131.34" r="4" fill="black"/>
      <line x1="360.84" y1="131.34" x2="384.84" y2="131.34" stroke="red" stroke-width="2"/>
      <polygon points="384.84,131.34 378.84,128.34 378.84,134.34" fill="red"/>
      <line x1="360.84" y1="131.34" x2="360.84" y2="107.34" stroke="green" stroke-width="2"/>
      <polygon points="360.84,107.34 357.84,113.34 363.84,113.34" fill="green"/>
    </g>
    <g id="flagnote-5-leader_dest">
      <circle cx="135.32" cy="49.25" r="4" fill="black"/>
      <line x1="135.32" y1="49.25" x2="159.32" y2="49.25" stroke="red" stroke-width="2"/>
      <polygon points="159.32,49.25 153.32,46.25 153.32,52.25" fill="red"/>
      <line x1="135.32" y1="49.25" x2="135.32" y2="25.25" stroke="green" stroke-width="2"/>
      <polygon points="135.32,25.25 132.32,31.25 138.32,31.25" fill="green"/>
    </g>
    <g id="flagnote-6">
      <circle cx="135.76" cy="-135.76" r="4" fill="black"/>
      <line x1="135.76" y1="-135.76" x2="159.76" y2="-135.76" stroke="red" stroke-width="2"/>
      <polygon points="159.76,-135.76 153.76,-138.76 153.76,-132.76" fill="red"/>
      <line x1="135.76" y1="-135.76" x2="135.76" y2="-159.76" stroke="green" stroke-width="2"/>
      <polygon points="135.76,-159.76 132.76,-153.76 138.76,-153.76" fill="green"/>
    </g>
    <g id="flagnote-leader-6">
      <circle cx="67.88" cy="-67.88" r="4" fill="black"/>
      <line x1="67.88" y1="-67.88" x2="91.88" y2="-67.88" stroke="red" stroke-width="2"/>
      <polygon points="91.88,-67.88 85.88,-70.88 85.88,-64.88" fill="red"/>
      <line x1="67.88" y1="-67.88" x2="67.88" y2="-91.88" stroke="green" stroke-width="2"/>
      <polygon points="67.88,-91.88 64.88,-85.88 70.88,-85.88" fill="green"/>
    </g>
    <g id="flagnote-7">
      <circle cx="135.76" cy="135.76" r="4" fill="black"/>
      <line x1="135.76" y1="135.76" x2="159.76" y2="135.76" stroke="red" stroke-width="2"/>
      <polygon points="159.76,135.76 153.76,132.76 153.76,138.76" fill="red"/>
      <line x1="135.76" y1="135.76" x2="135.76" y2="111.76" stroke="green" stroke-width="2"/>
      <polygon points="135.76,111.76 132.76,117.76 138.76,117.76" fill="green"/>
    </g>
    <g id="flagnote-leader-7">
      <circle cx="67.88" cy="67.88" r="4" fill="black"/>
      <line x1="67.88" y1="67.88" x2="91.88" y2="67.88" stroke="red" stroke-width="2"/>
      <polygon points="91.88,67.88 85.88,64.88 85.88,70.88" fill="red"/>
      <line x1="67.88" y1="67.88" x2="67.88" y2="43.88" stroke="green" stroke-width="2"/>
      <polygon points="67.88,43.88 64.88,49.88 70.88,49.88" fill="green"/>
    </g>
    <g id="flagnote-8">
      <circle cx="96.00" cy="-166.28" r="4" fill="black"/>
      <line x1="96.00" y1="-166.28" x2="120.00" y2="-166.28" stroke="red" stroke-width="2"/>
      <polygon points="120.00,-166.28 114.00,-169.28 114.00,-163.28" fill="red"/>
      <line x1="96.00" y1="-166.28" x2="96.00" y2="-190.28" stroke="green" stroke-width="2"/>
      <polygon points="96.00,-190.28 93.00,-184.28 99.00,-184.28" fill="green"/>
    </g>
    <g id="flagnote-leader-8">
      <circle cx="48.00" cy="-83.14" r="4" fill="black"/>
      <line x1="48.00" y1="-83.14" x2="72.00" y2="-83.14" stroke="red" stroke-width="2"/>
      <polygon points="72.00,-83.14 66.00,-86.14 66.00,-80.14" fill="red"/>
      <line x1="48.00" y1="-83.14" x2="48.00" y2="-107.14" stroke="green" stroke-width="2"/>
      <polygon points="48.00,-107.14 45.00,-101.14 51.00,-101.14" fill="green"/>
    </g>
    <g id="flagnote-9">
      <circle cx="96.00" cy="166.28" r="4" fill="black"/>
      <line x1="96.00" y1="166.28" x2="120.00" y2="166.28" stroke="red" stroke-width="2"/>
      <polygon points="120.00,166.28 114.00,163.28 114.00,169.28" fill="red"/>
      <line x1="96.00" y1="166.28" x2="96.00" y2="142.28" stroke="green" stroke-width="2"/>
      <polygon points="96.00,142.28 93.00,148.28 99.00,148.28" fill="green"/>
    </g>
    <g id="flagnote-leader-9">
      <circle cx="48.00" cy="83.14" r="4" fill="black"/>
      <line x1="48.00" y1="83.14" x2="72.00" y2="83.14" stroke="red" stroke-width="2"/>
      <polygon points="72.00,83.14 66.00,80.14 66.00,86.14" fill="red"/>
      <line x1="48.00" y1="83.14" x2="48.00" y2="59.14" stroke="green" stroke-width="2"/>
      <polygon points="48.00,59.14 45.00,65.14 51.00,65.14" fill="green"/>
    </g>
    <g id="flagnote-10">
      <circle cx="49.69" cy="185.46" r="4" fill="black"/>
      <line x1="49.69" y1="185.46" x2="73.69" y2="185.46" stroke="red" stroke-width="2"/>
      <polygon points="73.69,185.46 67.69,182.46 67.69,188.46" fill="red"/>
      <line x1="49.69" y1="185.46" x2="49.69" y2="161.46" stroke="green" stroke-width="2"/>
      <polygon points="49.69,161.46 46.69,167.46 52.69,167.46" fill="green"/>
    </g>
    <g id="flagnote-leader-10">
      <circle cx="24.85" cy="92.73" r="4" fill="black"/>
      <line x1="24.85" y1="92.73" x2="48.85" y2="92.73" stroke="red" stroke-width="2"/>
      <polygon points="48.85,92.73 42.85,89.73 42.85,95.73" fill="red"/>
      <line x1="24.85" y1="92.73" x2="24.85" y2="68.73" stroke="green" stroke-width="2"/>
      <polygon points="24.85,68.73 21.85,74.73 27.85,74.73" fill="green"/>
    </g>
    <g id="flagnote-11">
      <circle cx="49.69" cy="-185.46" r="4" fill="black"/>
      <line x1="49.69" y1="-185.46" x2="73.69" y2="-185.46" stroke="red" stroke-width="2"/>
      <polygon points="73.69,-185.46 67.69,-188.46 67.69,-182.46" fill="red"/>
      <line x1="49.69" y1="-185.46" x2="49.69" y2="-209.46" stroke="green" stroke-width="2"/>
      <polygon points="49.69,-209.46 46.69,-203.46 52.69,-203.46" fill="green"/>
    </g>
    <g id="flagnote-leader-11">
      <circle cx="24.85" cy="-92.73" r="4" fill="black"/>
      <line x1="24.85" y1="-92.73" x2="48.85" y2="-92.73" stroke="red" stroke-width="2"/>
      <polygon points="48.85,-92.73 42.85,-95.73 42.85,-89.73" fill="red"/>
      <line x1="24.85" y1="-92.73" x2="24.85" y2="-116.73" stroke="green" stroke-width="2"/>
      <polygon points="24.85,-116.73 21.85,-110.73 27.85,-110.73" fill="green"/>
    </g>
    <g id="flagnote-12">
      <circle cx="0.00" cy="192.00" r="4" fill="black"/>
      <line x1="0.00" y1="192.00" x2="24.00" y2="192.00" stroke="red" stroke-width="2"/>
      <polygon points="24.00,192.00 18.00,189.00 18.00,195.00" fill="red"/>
      <line x1="0.00" y1="192.00" x2="0.00" y2="168.00" stroke="green" stroke-width="2"/>
      <polygon points="0.00,168.00 -3.00,174.00 3.00,174.00" fill="green"/>
    </g>
    <g id="flagnote-leader-12">
      <circle cx="0.00" cy="96.00" r="4" fill="black"/>
      <line x1="0.00" y1="96.00" x2="24.00" y2="96.00" stroke="red" stroke-width="2"/>
      <polygon points="24.00,96.00 18.00,93.00 18.00,99.00" fill="red"/>
      <line x1="0.00" y1="96.00" x2="0.00" y2="72.00" stroke="green" stroke-width="2"/>
      <polygon points="0.00,72.00 -3.00,78.00 3.00,78.00" fill="green"/>
    </g>
    <g id="flagnote-13">
      <circle cx="0.00" cy="-192.00" r="4" fill="black"/>
      <line x1="0.00" y1="-192.00" x2="24.00" y2="-192.00" stroke="red" stroke-width="2"/>
      <polygon points="24.00,-192.00 18.00,-195.00 18.00,-189.00" fill="red"/>
      <line x1="0.00" y1="-192.00" x2="0.00" y2="-216.00" stroke="green" stroke-width="2"/>
      <polygon points="0.00,-216.00 -3.00,-210.00 3.00,-210.00" fill="green"/>
    </g>
    <g id="flagnote-leader-13">
      <circle cx="0.00" cy="-96.00" r="4" fill="black"/>
      <line x1="0.00" y1="-96.00" x2="24.00" y2="-96.00" stroke="red" stroke-width="2"/>
      <polygon points="24.00,-96.00 18.00,-99.00 18.00,-93.00" fill="red"/>
      <line x1="0.00" y1="-96.00" x2="0.00" y2="-120.00" stroke="green" stroke-width="2"/>
      <polygon points="0.00,-120.00 -3.00,-114.00 3.00,-114.00" fill="green"/>
    </g>
    <g id="flagnote-14">
      <circle cx="-49.69" cy="185.46" r="4" fill="black"/>
      <line x1="-49.69" y1="185.46" x2="-25.69" y2="185.46" stroke="red" stroke-width="2"/>
      <polygon points="-25.69,185.46 -31.69,182.46 -31.69,188.46" fill="red"/>
      <line x1="-49.69" y1="185.46" x2="-49.69" y2="161.46" stroke="green" stroke-width="2"/>
      <polygon points="-49.69,161.46 -52.69,167.46 -46.69,167.46" fill="green"/>
    </g>
    <g id="flagnote-leader-14">
      <circle cx="-24.85" cy="92.73" r="4" fill="black"/>
      <line x1="-24.85" y1="92.73" x2="-0.85" y2="92.73" stroke="red" stroke-width="2"/>
      <polygon points="-0.85,92.73 -6.85,89.73 -6.85,95.73" fill="red"/>
      <line x1="-24.85" y1="92.73" x2="-24.85" y2="68.73" stroke="green" stroke-width="2"/>
      <polygon points="-24.85,68.73 -27.85,74.73 -21.85,74.73" fill="green"/>
    </g>
    <g id="flagnote-15">
      <circle cx="-49.69" cy="-185.46" r="4" fill="black"/>
      <line x1="-49.69" y1="-185.46" x2="-25.69" y2="-185.46" stroke="red" stroke-width="2"/>
      <polygon points="-25.69,-185.46 -31.69,-188.46 -31.69,-182.46" fill="red"/>
      <line x1="-49.69" y1="-185.46" x2="-49.69" y2="-209.46" stroke="green" stroke-width="2"/>
      <polygon points="-49.69,-209.46 -52.69,-203.46 -46.69,-203.46" fill="green"/>
    </g>
    <g id="flagnote-leader-15">
      <circle cx="-24.85" cy="-92.73" r="4" fill="black"/>
      <line x1="-24.85" y1="-92.73" x2="-0.85" y2="-92.73" stroke="red" stroke-width="2"/>
      <polygon points="-0.85,-92.73 -6.85,-95.73 -6.85,-89.73" fill="red"/>
      <line x1="-24.85" y1="-92.73" x2="-24.85" y2="-116.73" stroke="green" stroke-width="2"/>
      <polygon points="-24.85,-116.73 -27.85,-110.73 -21.85,-110.73" fill="green"/>
    </g>
    <g id="flagnote-16">
      <circle cx="-96.00" cy="166.28" r="4" fill="black"/>
      <line x1="-96.00" y1="166.28" x2="-72.00" y2="166.28" stroke="red" stroke-width="2"/>
      <polygon points="-72.00,166.28 -78.00,163.28 -78.00,169.28" fill="red"/>
      <line x1="-96.00" y1="166.28" x2="-96.00" y2="142.28" stroke="green" stroke-width="2"/>
      <polygon points="-96.00,142.28 -99.00,148.28 -93.00,148.28" fill="green"/>
    </g>
    <g id="flagnote-leader-16">
      <circle cx="-48.00" cy="83.14" r="4" fill="black"/>
      <line x1="-48.00" y1="83.14" x2="-24.00" y2="83.14" stroke="red" stroke-width="2"/>
      <polygon points="-24.00,83.14 -30.00,80.14 -30.00,86.14" fill="red"/>
      <line x1="-48.00" y1="83.14" x2="-48.00" y2="59.14" stroke="green" stroke-width="2"/>
      <polygon points="-48.00,59.14 -51.00,65.14 -45.00,65.14" fill="green"/>
    </g>
  </g>
</svg>
