<?xml version="1.0" encoding="UTF-8"?>
<svg xmlns="http://www.w3.org/2000/svg" version="1.1" width="400" height="400">
  <g id="RING_TERMINAL-1-1_2-drawing-contents-start">
    <rect x="0.00" y="-21.09" width="86.35" height="42.17" fill="#898989" rx="2"/>
    <polygon points="89.21,-18.30 84.35,-21.09 84.35,21.09 89.21,18.30" fill="#898989"/>
    <circle cx="121.21" cy="0.00" r="36.86" fill="#898989"/>
    <circle cx="121.21" cy="0.00" r="24.72" fill="#ffffff" stroke="#666666" stroke-width="0.5"/>
    <rect x="8.43" y="-21.09" width="12.65" height="42.17" fill="rgba(0,0,0,0.15)" rx="1"/>
    <line x1="8.43" y1="-21.09" x2="21.09" y2="-21.09" stroke="#777777" stroke-width="0.8"/>
    <line x1="8.43" y1="21.09" x2="21.09" y2="21.09" stroke="#777777" stroke-width="0.8"/>
    <rect x="63.26" y="-21.09" width="12.65" height="42.17" fill="rgba(0,0,0,0.15)" rx="1"/>
    <line x1="63.26" y1="-21.09" x2="75.91" y2="-21.09" stroke="#777777" stroke-width="0.8"/>
    <line x1="63.26" y1="21.09" x2="75.91" y2="21.09" stroke="#777777" stroke-width="0.8"/>
    <ellipse cx="0.00" cy="0.00" rx="2" ry="21.09" fill="#6a6a6a" stroke="#777777" stroke-width="0.5"/>
    <line x1="118.21" y1="0.00" x2="124.21" y2="0.00" stroke="#bbbbbb" stroke-width="0.5"/>
    <line x1="121.21" y1="-3.00" x2="121.21" y2="3.00" stroke="#bbbbbb" stroke-width="0.5"/>
</g>
<g id="RING_TERMINAL-1-1_2-drawing-contents-end">
  </g>
  <g id="output csys locations">
    <g id="flagnote-1">
      <circle cx="288.00" cy="-0.00" r="4" fill="black"/>
      <line x1="288.00" y1="-0.00" x2="312.00" y2="-0.00" stroke="red" stroke-width="2"/>
      <polygon points="312.00,-0.00 306.00,-3.00 306.00,3.00" fill="red"/>
      <line x1="288.00" y1="-0.00" x2="288.00" y2="-24.00" stroke="green" stroke-width="2"/>
      <polygon points="288.00,-24.00 285.00,-18.00 291.00,-18.00" fill="green"/>
    </g>
    <g id="flagnote-1-leader_dest">
      <circle cx="161.91" cy="-0.00" r="4" fill="black"/>
      <line x1="161.91" y1="-0.00" x2="185.91" y2="-0.00" stroke="red" stroke-width="2"/>
      <polygon points="185.91,-0.00 179.91,-3.00 179.91,3.00" fill="red"/>
      <line x1="161.91" y1="-0.00" x2="161.91" y2="-24.00" stroke="green" stroke-width="2"/>
      <polygon points="161.91,-24.00 158.91,-18.00 164.91,-18.00" fill="green"/>
    </g>
    <g id="flagnote-2">
      <circle cx="278.19" cy="-74.54" r="4" fill="black"/>
      <line x1="278.19" y1="-74.54" x2="302.19" y2="-74.54" stroke="red" stroke-width="2"/>
      <polygon points="302.19,-74.54 296.19,-77.54 296.19,-71.54" fill="red"/>
      <line x1="278.19" y1="-74.54" x2="278.19" y2="-98.54" stroke="green" stroke-width="2"/>
      <polygon points="278.19,-98.54 275.19,-92.54 281.19,-92.54" fill="green"/>
    </g>
    <g id="flagnote-2-leader_dest">
      <circle cx="135.50" cy="-36.31" r="4" fill="black"/>
      <line x1="135.50" y1="-36.31" x2="159.50" y2="-36.31" stroke="red" stroke-width="2"/>
      <polygon points="159.50,-36.31 153.50,-39.31 153.50,-33.31" fill="red"/>
      <line x1="135.50" y1="-36.31" x2="135.50" y2="-60.31" stroke="green" stroke-width="2"/>
      <polygon points="135.50,-60.31 132.50,-54.31 138.50,-54.31" fill="green"/>
    </g>
    <g id="flagnote-3">
      <circle cx="278.19" cy="74.54" r="4" fill="black"/>
      <line x1="278.19" y1="74.54" x2="302.19" y2="74.54" stroke="red" stroke-width="2"/>
      <polygon points="302.19,74.54 296.19,71.54 296.19,77.54" fill="red"/>
      <line x1="278.19" y1="74.54" x2="278.19" y2="50.54" stroke="green" stroke-width="2"/>
      <polygon points="278.19,50.54 275.19,56.54 281.19,56.54" fill="green"/>
    </g>
    <g id="flagnote-3-leader_dest">
      <circle cx="135.50" cy="36.31" r="4" fill="black"/>
      <line x1="135.50" y1="36.31" x2="159.50" y2="36.31" stroke="red" stroke-width="2"/>
      <polygon points="159.50,36.31 153.50,33.31 153.50,39.31" fill="red"/>
      <line x1="135.50" y1="36.31" x2="135.50" y2="12.31" stroke="green" stroke-width="2"/>
      <polygon points="135.50,12.31 132.50,18.31 138.50,18.31" fill="green"/>
    </g>
    <g id="flagnote-4">
      <circle cx="249.42" cy="-144.00" r="4" fill="black"/>
      <line x1="249.42" y1="-144.00" x2="273.42" y2="-144.00" stroke="red" stroke-width="2"/>
      <polygon points="273.42,-144.00 267.42,-147.00 267.42,-141.00" fill="red"/>
      <line x1="249.42" y1="-144.00" x2="249.42" y2="-168.00" stroke="green" stroke-width="2"/>
      <polygon points="249.42,-168.00 246.42,-162.00 252.42,-162.00" fill="green"/>
    </g>
    <g id="flagnote-4-leader_dest">
      <circle cx="67.18" cy="-38.78" r="4" fill="black"/>
      <line x1="67.18" y1="-38.78" x2="91.18" y2="-38.78" stroke="red" stroke-width="2"/>
      <polygon points="91.18,-38.78 85.18,-41.78 85.18,-35.78" fill="red"/>
      <line x1="67.18" y1="-38.78" x2="67.18" y2="-62.78" stroke="green" stroke-width="2"/>
      <polygon points="67.18,-62.78 64.18,-56.78 70.18,-56.78" fill="green"/>
    </g>
    <g id="flagnote-5">
      <circle cx="249.42" cy="144.00" r="4" fill="black"/>
      <line x1="249.42" y1="144.00" x2="273.42" y2="144.00" stroke="red" stroke-width="2"/>
      <polygon points="273.42,144.00 267.42,141.00 267.42,147.00" fill="red"/>
      <line x1="249.42" y1="144.00" x2="249.42" y2="120.00" stroke="green" stroke-width="2"/>
      <polygon points="249.42,120.00 246.42,126.00 252.42,126.00" fill="green"/>
    </g>
    <g id="flagnote-5-leader_dest">
      <circle cx="67.18" cy="38.78" r="4" fill="black"/>
      <line x1="67.18" y1="38.78" x2="91.18" y2="38.78" stroke="red" stroke-width="2"/>
      <polygon points="91.18,38.78 85.18,35.78 85.18,41.78" fill="red"/>
      <line x1="67.18" y1="38.78" x2="67.18" y2="14.78" stroke="green" stroke-width="2"/>
      <polygon points="67.18,14.78 64.18,20.78 70.18,20.78" fill="green"/>
    </g>
    <g id="flagnote-6">
      <circle cx="203.65" cy="-203.65" r="4" fill="black"/>
      <line x1="203.65" y1="-203.65" x2="227.65" y2="-203.65" stroke="red" stroke-width="2"/>
      <polygon points="227.65,-203.65 221.65,-206.65 221.65,-200.65" fill="red"/>
      <line x1="203.65" y1="-203.65" x2="203.65" y2="-227.65" stroke="green" stroke-width="2"/>
      <polygon points="203.65,-227.65 200.65,-221.65 206.65,-221.65" fill="green"/>
    </g>
    <g id="flagnote-6-leader_dest">
      <circle cx="39.58" cy="-39.58" r="4" fill="black"/>
      <line x1="39.58" y1="-39.58" x2="63.58" y2="-39.58" stroke="red" stroke-width="2"/>
      <polygon points="63.58,-39.58 57.58,-42.58 57.58,-36.58" fill="red"/>
      <line x1="39.58" y1="-39.58" x2="39.58" y2="-63.58" stroke="green" stroke-width="2"/>
      <polygon points="39.58,-63.58 36.58,-57.58 42.58,-57.58" fill="green"/>
    </g>
    <g id="flagnote-7">
      <circle cx="203.65" cy="203.65" r="4" fill="black"/>
      <line x1="203.65" y1="203.65" x2="227.65" y2="203.65" stroke="red" stroke-width="2"/>
      <polygon points="227.65,203.65 221.65,200.65 221.65,206.65" fill="red"/>
      <line x1="203.65" y1="203.65" x2="203.65" y2="179.65" stroke="green" stroke-width="2"/>
      <polygon points="203.65,179.65 200.65,185.65 206.65,185.65" fill="green"/>
    </g>
    <g id="flagnote-7-leader_dest">
      <circle cx="39.58" cy="39.58" r="4" fill="black"/>
      <line x1="39.58" y1="39.58" x2="63.58" y2="39.58" stroke="red" stroke-width="2"/>
      <polygon points="63.58,39.58 57.58,36.58 57.58,42.58" fill="red"/>
      <line x1="39.58" y1="39.58" x2="39.58" y2="15.58" stroke="green" stroke-width="2"/>
      <polygon points="39.58,15.58 36.58,21.58 42.58,21.58" fill="green"/>
    </g>
    <g id="flagnote-8">
      <circle cx="144.00" cy="-249.42" r="4" fill="black"/>
      <line x1="144.00" y1="-249.42" x2="168.00" y2="-249.42" stroke="red" stroke-width="2"/>
      <polygon points="168.00,-249.42 162.00,-252.42 162.00,-246.42" fill="red"/>
      <line x1="144.00" y1="-249.42" x2="144.00" y2="-273.42" stroke="green" stroke-width="2"/>
      <polygon points="144.00,-273.42 141.00,-267.42 147.00,-267.42" fill="green"/>
    </g>
    <g id="flagnote-8-leader_dest">
      <circle cx="23.20" cy="-40.19" r="4" fill="black"/>
      <line x1="23.20" y1="-40.19" x2="47.20" y2="-40.19" stroke="red" stroke-width="2"/>
      <polygon points="47.20,-40.19 41.20,-43.19 41.20,-37.19" fill="red"/>
      <line x1="23.20" y1="-40.19" x2="23.20" y2="-64.19" stroke="green" stroke-width="2"/>
      <polygon points="23.20,-64.19 20.20,-58.19 26.20,-58.19" fill="green"/>
    </g>
    <g id="flagnote-9">
      <circle cx="144.00" cy="249.42" r="4" fill="black"/>
      <line x1="144.00" y1="249.42" x2="168.00" y2="249.42" stroke="red" stroke-width="2"/>
      <polygon points="168.00,249.42 162.00,246.42 162.00,252.42" fill="red"/>
      <line x1="144.00" y1="249.42" x2="144.00" y2="225.42" stroke="green" stroke-width="2"/>
      <polygon points="144.00,225.42 141.00,231.42 147.00,231.42" fill="green"/>
    </g>
    <g id="flagnote-9-leader_dest">
      <circle cx="23.20" cy="40.19" r="4" fill="black"/>
      <line x1="23.20" y1="40.19" x2="47.20" y2="40.19" stroke="red" stroke-width="2"/>
      <polygon points="47.20,40.19 41.20,37.19 41.20,43.19" fill="red"/>
      <line x1="23.20" y1="40.19" x2="23.20" y2="16.19" stroke="green" stroke-width="2"/>
      <polygon points="23.20,16.19 20.20,22.19 26.20,22.19" fill="green"/>
    </g>
    <g id="flagnote-10">
      <circle cx="74.54" cy="-278.19" r="4" fill="black"/>
      <line x1="74.54" y1="-278.19" x2="98.54" y2="-278.19" stroke="red" stroke-width="2"/>
      <polygon points="98.54,-278.19 92.54,-281.19 92.54,-275.19" fill="red"/>
      <line x1="74.54" y1="-278.19" x2="74.54" y2="-302.19" stroke="green" stroke-width="2"/>
      <polygon points="74.54,-302.19 71.54,-296.19 77.54,-296.19" fill="green"/>
    </g>
    <g id="flagnote-10-leader_dest">
      <circle cx="10.87" cy="-40.58" r="4" fill="black"/>
      <line x1="10.87" y1="-40.58" x2="34.87" y2="-40.58" stroke="red" stroke-width="2"/>
      <polygon points="34.87,-40.58 28.87,-43.58 28.87,-37.58" fill="red"/>
      <line x1="10.87" y1="-40.58" x2="10.87" y2="-64.58" stroke="green" stroke-width="2"/>
      <polygon points="10.87,-64.58 7.87,-58.58 13.87,-58.58" fill="green"/>
    </g>
    <g id="flagnote-11">
      <circle cx="74.54" cy="278.19" r="4" fill="black"/>
      <line x1="74.54" y1="278.19" x2="98.54" y2="278.19" stroke="red" stroke-width="2"/>
      <polygon points="98.54,278.19 92.54,275.19 92.54,281.19" fill="red"/>
      <line x1="74.54" y1="278.19" x2="74.54" y2="254.19" stroke="green" stroke-width="2"/>
      <polygon points="74.54,254.19 71.54,260.19 77.54,260.19" fill="green"/>
    </g>
    <g id="flagnote-11-leader_dest">
      <circle cx="10.87" cy="40.58" r="4" fill="black"/>
      <line x1="10.87" y1="40.58" x2="34.87" y2="40.58" stroke="red" stroke-width="2"/>
      <polygon points="34.87,40.58 28.87,37.58 28.87,43.58" fill="red"/>
      <line x1="10.87" y1="40.58" x2="10.87" y2="16.58" stroke="green" stroke-width="2"/>
      <polygon points="10.87,16.58 7.87,22.58 13.87,22.58" fill="green"/>
    </g>
    <g id="flagnote-12">
      <circle cx="0.00" cy="-288.00" r="4" fill="black"/>
      <line x1="0.00" y1="-288.00" x2="24.00" y2="-288.00" stroke="red" stroke-width="2"/>
      <polygon points="24.00,-288.00 18.00,-291.00 18.00,-285.00" fill="red"/>
      <line x1="0.00" y1="-288.00" x2="0.00" y2="-312.00" stroke="green" stroke-width="2"/>
      <polygon points="0.00,-312.00 -3.00,-306.00 3.00,-306.00" fill="green"/>
    </g>
    <g id="flagnote-12-leader_dest">
      <circle cx="0.00" cy="-40.70" r="4" fill="black"/>
      <line x1="0.00" y1="-40.70" x2="24.00" y2="-40.70" stroke="red" stroke-width="2"/>
      <polygon points="24.00,-40.70 18.00,-43.70 18.00,-37.70" fill="red"/>
      <line x1="0.00" y1="-40.70" x2="0.00" y2="-64.70" stroke="green" stroke-width="2"/>
      <polygon points="0.00,-64.70 -3.00,-58.70 3.00,-58.70" fill="green"/>
    </g>
    <g id="flagnote-13">
      <circle cx="0.00" cy="288.00" r="4" fill="black"/>
      <line x1="0.00" y1="288.00" x2="24.00" y2="288.00" stroke="red" stroke-width="2"/>
      <polygon points="24.00,288.00 18.00,285.00 18.00,291.00" fill="red"/>
      <line x1="0.00" y1="288.00" x2="0.00" y2="264.00" stroke="green" stroke-width="2"/>
      <polygon points="0.00,264.00 -3.00,270.00 3.00,270.00" fill="green"/>
    </g>
    <g id="flagnote-13-leader_dest">
      <circle cx="0.00" cy="40.70" r="4" fill="black"/>
      <line x1="0.00" y1="40.70" x2="24.00" y2="40.70" stroke="red" stroke-width="2"/>
      <polygon points="24.00,40.70 18.00,37.70 18.00,43.70" fill="red"/>
      <line x1="0.00" y1="40.70" x2="0.00" y2="16.70" stroke="green" stroke-width="2"/>
      <polygon points="0.00,16.70 -3.00,22.70 3.00,22.70" fill="green"/>
    </g>
  </g>
</svg>
