<?xml version="1.0" encoding="UTF-8"?>
<svg xmlns="http://www.w3.org/2000/svg" version="1.1" width="400" height="400">
  <g id="RING_TERMINAL-1-5_8-drawing-contents-start">
    <rect x="0.00" y="-21.09" width="86.35" height="42.17" fill="#898989" rx="2"/>
    <polygon points="88.58,-19.11 84.35,-21.09 84.35,21.09 88.58,19.11" fill="#898989"/>
    <circle cx="129.57" cy="0.00" r="45.22" fill="#898989"/>
    <circle cx="129.57" cy="0.00" r="31.49" fill="#ffffff" stroke="#666666" stroke-width="0.5"/>
    <rect x="8.43" y="-21.09" width="12.65" height="42.17" fill="rgba(0,0,0,0.15)" rx="1"/>
    <line x1="8.43" y1="-21.09" x2="21.09" y2="-21.09" stroke="#777777" stroke-width="0.8"/>
    <line x1="8.43" y1="21.09" x2="21.09" y2="21.09" stroke="#777777" stroke-width="0.8"/>
    <rect x="63.26" y="-21.09" width="12.65" height="42.17" fill="rgba(0,0,0,0.15)" rx="1"/>
    <line x1="63.26" y1="-21.09" x2="75.91" y2="-21.09" stroke="#777777" stroke-width="0.8"/>
    <line x1="63.26" y1="21.09" x2="75.91" y2="21.09" stroke="#777777" stroke-width="0.8"/>
    <ellipse cx="0.00" cy="0.00" rx="2" ry="21.09" fill="#6a6a6a" stroke="#777777" stroke-width="0.5"/>
    <line x1="126.57" y1="0.00" x2="132.57" y2="0.00" stroke="#bbbbbb" stroke-width="0.5"/>
    <line x1="129.57" y1="-3.00" x2="129.57" y2="3.00" stroke="#bbbbbb" stroke-width="0.5"/>
</g>
<g id="RING_TERMINAL-1-5_8-drawing-contents-end">
  </g>
  <g id="output csys locations">
    <g id="flagnote-1">
      <circle cx="288.00" cy="-0.00" r="4" fill="black"/>
      <line x1="288.00" y1="-0.00" x2="312.00" y2="-0.00" stroke="red" stroke-width="2"/>
      <polygon points="312.00,-0.00 306.00,-3.00 306.00,3.00" fill="red"/>
      <line x1="288.00" y1="-0.00" x2="288.00" y2="-24.00" stroke="green" stroke-width="2"/>
      <polygon points="288.00,-24.00 285.00,-18.00 291.00,-18.00" fill="green"/>
    </g>
    <g id="flagnote-1-leader_dest">
      <circle cx="96.00" cy="-0.00" r="4" fill="black"/>
      <line x1="96.00" y1="-0.00" x2="120.00" y2="-0.00" stroke="red" stroke-width="2"/>
      <polygon points="120.00,-0.00 114.00,-3.00 114.00,3.00" fill="red"/>
      <line x1="96.00" y1="-0.00" x2="96.00" y2="-24.00" stroke="green" stroke-width="2"/>
      <polygon points="96.00,-24.00 93.00,-18.00 99.00,-18.00" fill="green"/>
    </g>
    <g id="flagnote-2">
      <circle cx="278.19" cy="-74.54" r="4" fill="black"/>
      <line x1="278.19" y1="-74.54" x2="302.19" y2="-74.54" stroke="red" stroke-width="2"/>
      <polygon points="302.19,-74.54 296.19,-77.54 296.19,-71.54" fill="red"/>
      <line x1="278.19" y1="-74.54" x2="278.19" y2="-98.54" stroke="green" stroke-width="2"/>
      <polygon points="278.19,-98.54 275.19,-92.54 281.19,-92.54" fill="green"/>
    </g>
    <g id="flagnote-2-leader_dest">
      <circle cx="95.51" cy="-25.59" r="4" fill="black"/>
      <line x1="95.51" y1="-25.59" x2="119.51" y2="-25.59" stroke="red" stroke-width="2"/>
      <polygon points="119.51,-25.59 113.51,-28.59 113.51,-22.59" fill="red"/>
      <line x1="95.51" y1="-25.59" x2="95.51" y2="-49.59" stroke="green" stroke-width="2"/>
      <polygon points="95.51,-49.59 92.51,-43.59 98.51,-43.59" fill="green"/>
    </g>
    <g id="flagnote-3">
      <circle cx="278.19" cy="74.54" r="4" fill="black"/>
      <line x1="278.19" y1="74.54" x2="302.19" y2="74.54" stroke="red" stroke-width="2"/>
      <polygon points="302.19,74.54 296.19,71.54 296.19,77.54" fill="red"/>
      <line x1="278.19" y1="74.54" x2="278.19" y2="50.54" stroke="green" stroke-width="2"/>
      <polygon points="278.19,50.54 275.19,56.54 281.19,56.54" fill="green"/>
    </g>
    <g id="flagnote-3-leader_dest">
      <circle cx="95.51" cy="25.59" r="4" fill="black"/>
      <line x1="95.51" y1="25.59" x2="119.51" y2="25.59" stroke="red" stroke-width="2"/>
      <polygon points="119.51,25.59 113.51,22.59 113.51,28.59" fill="red"/>
      <line x1="95.51" y1="25.59" x2="95.51" y2="1.59" stroke="green" stroke-width="2"/>
      <polygon points="95.51,1.59 92.51,7.59 98.51,7.59" fill="green"/>
    </g>
    <g id="flagnote-4">
      <circle cx="249.42" cy="-144.00" r="4" fill="black"/>
      <line x1="249.42" y1="-144.00" x2="273.42" y2="-144.00" stroke="red" stroke-width="2"/>
      <polygon points="273.42,-144.00 267.42,-147.00 267.42,-141.00" fill="red"/>
      <line x1="249.42" y1="-144.00" x2="249.42" y2="-168.00" stroke="green" stroke-width="2"/>
      <polygon points="249.42,-168.00 246.42,-162.00 252.42,-162.00" fill="green"/>
    </g>
    <g id="flagnote-4-leader_dest">
      <circle cx="83.14" cy="-48.00" r="4" fill="black"/>
      <line x1="83.14" y1="-48.00" x2="107.14" y2="-48.00" stroke="red" stroke-width="2"/>
      <polygon points="107.14,-48.00 101.14,-51.00 101.14,-45.00" fill="red"/>
      <line x1="83.14" y1="-48.00" x2="83.14" y2="-72.00" stroke="green" stroke-width="2"/>
      <polygon points="83.14,-72.00 80.14,-66.00 86.14,-66.00" fill="green"/>
    </g>
    <g id="flagnote-5">
      <circle cx="249.42" cy="144.00" r="4" fill="black"/>
      <line x1="249.42" y1="144.00" x2="273.42" y2="144.00" stroke="red" stroke-width="2"/>
      <polygon points="273.42,144.00 267.42,141.00 267.42,147.00" fill="red"/>
      <line x1="249.42" y1="144.00" x2="249.42" y2="120.00" stroke="green" stroke-width="2"/>
      <polygon points="249.42,120.00 246.42,126.00 252.42,126.00" fill="green"/>
    </g>
    <g id="flagnote-5-leader_dest">
      <circle cx="83.14" cy="48.00" r="4" fill="black"/>
      <line x1="83.14" y1="48.00" x2="107.14" y2="48.00" stroke="red" stroke-width="2"/>
      <polygon points="107.14,48.00 101.14,45.00 101.14,51.00" fill="red"/>
      <line x1="83.14" y1="48.00" x2="83.14" y2="24.00" stroke="green" stroke-width="2"/>
      <polygon points="83.14,24.00 80.14,30.00 86.14,30.00" fill="green"/>
    </g>
    <g id="flagnote-6">
      <circle cx="203.65" cy="-203.65" r="4" fill="black"/>
      <line x1="203.65" y1="-203.65" x2="227.65" y2="-203.65" stroke="red" stroke-width="2"/>
      <polygon points="227.65,-203.65 221.65,-206.65 221.65,-200.65" fill="red"/>
      <line x1="203.65" y1="-203.65" x2="203.65" y2="-227.65" stroke="green" stroke-width="2"/>
      <polygon points="203.65,-227.65 200.65,-221.65 206.65,-221.65" fill="green"/>
    </g>
    <g id="flagnote-6-leader_dest">
      <circle cx="48.88" cy="-48.88" r="4" fill="black"/>
      <line x1="48.88" y1="-48.88" x2="72.88" y2="-48.88" stroke="red" stroke-width="2"/>
      <polygon points="72.88,-48.88 66.88,-51.88 66.88,-45.88" fill="red"/>
      <line x1="48.88" y1="-48.88" x2="48.88" y2="-72.88" stroke="green" stroke-width="2"/>
      <polygon points="48.88,-72.88 45.88,-66.88 51.88,-66.88" fill="green"/>
    </g>
    <g id="flagnote-7">
      <circle cx="203.65" cy="203.65" r="4" fill="black"/>
      <line x1="203.65" y1="203.65" x2="227.65" y2="203.65" stroke="red" stroke-width="2"/>
      <polygon points="227.65,203.65 221.65,200.65 221.65,206.65" fill="red"/>
      <line x1="203.65" y1="203.65" x2="203.65" y2="179.65" stroke="green" stroke-width="2"/>
      <polygon points="203.65,179.65 200.65,185.65 206.65,185.65" fill="green"/>
    </g>
    <g id="flagnote-7-leader_dest">
      <circle cx="48.88" cy="48.88" r="4" fill="black"/>
      <line x1="48.88" y1="48.88" x2="72.88" y2="48.88" stroke="red" stroke-width="2"/>
      <polygon points="72.88,48.88 66.88,45.88 66.88,51.88" fill="red"/>
      <line x1="48.88" y1="48.88" x2="48.88" y2="24.88" stroke="green" stroke-width="2"/>
      <polygon points="48.88,24.88 45.88,30.88 51.88,30.88" fill="green"/>
    </g>
    <g id="flagnote-8">
      <circle cx="144.00" cy="-249.42" r="4" fill="black"/>
      <line x1="144.00" y1="-249.42" x2="168.00" y2="-249.42" stroke="red" stroke-width="2"/>
      <polygon points="168.00,-249.42 162.00,-252.42 162.00,-246.42" fill="red"/>
      <line x1="144.00" y1="-249.42" x2="144.00" y2="-273.42" stroke="green" stroke-width="2"/>
      <polygon points="144.00,-273.42 141.00,-267.42 147.00,-267.42" fill="green"/>
    </g>
    <g id="flagnote-8-leader_dest">
      <circle cx="27.84" cy="-48.22" r="4" fill="black"/>
      <line x1="27.84" y1="-48.22" x2="51.84" y2="-48.22" stroke="red" stroke-width="2"/>
      <polygon points="51.84,-48.22 45.84,-51.22 45.84,-45.22" fill="red"/>
      <line x1="27.84" y1="-48.22" x2="27.84" y2="-72.22" stroke="green" stroke-width="2"/>
      <polygon points="27.84,-72.22 24.84,-66.22 30.84,-66.22" fill="green"/>
    </g>
    <g id="flagnote-9">
      <circle cx="144.00" cy="249.42" r="4" fill="black"/>
      <line x1="144.00" y1="249.42" x2="168.00" y2="249.42" stroke="red" stroke-width="2"/>
      <polygon points="168.00,249.42 162.00,246.42 162.00,252.42" fill="red"/>
      <line x1="144.00" y1="249.42" x2="144.00" y2="225.42" stroke="green" stroke-width="2"/>
      <polygon points="144.00,225.42 141.00,231.42 147.00,231.42" fill="green"/>
    </g>
    <g id="flagnote-9-leader_dest">
      <circle cx="27.84" cy="48.22" r="4" fill="black"/>
      <line x1="27.84" y1="48.22" x2="51.84" y2="48.22" stroke="red" stroke-width="2"/>
      <polygon points="51.84,48.22 45.84,45.22 45.84,51.22" fill="red"/>
      <line x1="27.84" y1="48.22" x2="27.84" y2="24.22" stroke="green" stroke-width="2"/>
      <polygon points="27.84,24.22 24.84,30.22 30.84,30.22" fill="green"/>
    </g>
    <g id="flagnote-10">
      <circle cx="74.54" cy="278.19" r="4" fill="black"/>
      <line x1="74.54" y1="278.19" x2="98.54" y2="278.19" stroke="red" stroke-width="2"/>
      <polygon points="98.54,278.19 92.54,275.19 92.54,281.19" fill="red"/>
      <line x1="74.54" y1="278.19" x2="74.54" y2="254.19" stroke="green" stroke-width="2"/>
      <polygon points="74.54,254.19 71.54,260.19 77.54,260.19" fill="green"/>
    </g>
    <g id="flagnote-10-leader_dest">
      <circle cx="12.92" cy="48.22" r="4" fill="black"/>
      <line x1="12.92" y1="48.22" x2="36.92" y2="48.22" stroke="red" stroke-width="2"/>
      <polygon points="36.92,48.22 30.92,45.22 30.92,51.22" fill="red"/>
      <line x1="12.92" y1="48.22" x2="12.92" y2="24.22" stroke="green" stroke-width="2"/>
      <polygon points="12.92,24.22 9.92,30.22 15.92,30.22" fill="green"/>
    </g>
    <g id="flagnote-11">
      <circle cx="74.54" cy="-278.19" r="4" fill="black"/>
      <line x1="74.54" y1="-278.19" x2="98.54" y2="-278.19" stroke="red" stroke-width="2"/>
      <polygon points="98.54,-278.19 92.54,-281.19 92.54,-275.19" fill="red"/>
      <line x1="74.54" y1="-278.19" x2="74.54" y2="-302.19" stroke="green" stroke-width="2"/>
      <polygon points="74.54,-302.19 71.54,-296.19 77.54,-296.19" fill="green"/>
    </g>
    <g id="flagnote-11-leader_dest">
      <circle cx="12.92" cy="-48.22" r="4" fill="black"/>
      <line x1="12.92" y1="-48.22" x2="36.92" y2="-48.22" stroke="red" stroke-width="2"/>
      <polygon points="36.92,-48.22 30.92,-51.22 30.92,-45.22" fill="red"/>
      <line x1="12.92" y1="-48.22" x2="12.92" y2="-72.22" stroke="green" stroke-width="2"/>
      <polygon points="12.92,-72.22 9.92,-66.22 15.92,-66.22" fill="green"/>
    </g>
    <g id="flagnote-12">
      <circle cx="0.00" cy="288.00" r="4" fill="black"/>
      <line x1="0.00" y1="288.00" x2="24.00" y2="288.00" stroke="red" stroke-width="2"/>
      <polygon points="24.00,288.00 18.00,285.00 18.00,291.00" fill="red"/>
      <line x1="0.00" y1="288.00" x2="0.00" y2="264.00" stroke="green" stroke-width="2"/>
      <polygon points="0.00,264.00 -3.00,270.00 3.00,270.00" fill="green"/>
    </g>
    <g id="flagnote-12-leader_dest">
      <circle cx="0.00" cy="49.92" r="4" fill="black"/>
      <line x1="0.00" y1="49.92" x2="24.00" y2="49.92" stroke="red" stroke-width="2"/>
      <polygon points="24.00,49.92 18.00,46.92 18.00,52.92" fill="red"/>
      <line x1="0.00" y1="49.92" x2="0.00" y2="25.92" stroke="green" stroke-width="2"/>
      <polygon points="0.00,25.92 -3.00,31.92 3.00,31.92" fill="green"/>
    </g>
    <g id="flagnote-13">
      <circle cx="0.00" cy="-288.00" r="4" fill="black"/>
      <line x1="0.00" y1="-288.00" x2="24.00" y2="-288.00" stroke="red" stroke-width="2"/>
      <polygon points="24.00,-288.00 18.00,-291.00 18.00,-285.00" fill="red"/>
      <line x1="0.00" y1="-288.00" x2="0.00" y2="-312.00" stroke="green" stroke-width="2"/>
      <polygon points="0.00,-312.00 -3.00,-306.00 3.00,-306.00" fill="green"/>
    </g>
    <g id="flagnote-13-leader_dest">
      <circle cx="0.00" cy="-48.00" r="4" fill="black"/>
      <line x1="0.00" y1="-48.00" x2="24.00" y2="-48.00" stroke="red" stroke-width="2"/>
      <polygon points="24.00,-48.00 18.00,-51.00 18.00,-45.00" fill="red"/>
      <line x1="0.00" y1="-48.00" x2="0.00" y2="-72.00" stroke="green" stroke-width="2"/>
      <polygon points="0.00,-72.00 -3.00,-66.00 3.00,-66.00" fill="green"/>
    </g>
  </g>
</svg>
